<?xml version="1.0" encoding="UTF-8"?>
<!DOCTYPE svg PUBLIC "-//W3C//DTD SVG 1.1//EN" "http://www.w3.org/Graphics/SVG/1.1/DTD/svg11.dtd">
<!-- Creator: CorelDRAW 2021.5 -->
<svg xmlns="http://www.w3.org/2000/svg" xml:space="preserve" width="700px" height="583px" version="1.1" style="shape-rendering:geometricPrecision; text-rendering:geometricPrecision; image-rendering:optimizeQuality; fill-rule:evenodd; clip-rule:evenodd"
viewBox="0 0 700 583.33"
 xmlns:xlink="http://www.w3.org/1999/xlink"
 xmlns:xodm="http://www.corel.com/coreldraw/odm/2003">
 <defs>
  <style type="text/css">
   <![CDATA[
    .str6 {stroke:black;stroke-width:4.67;stroke-miterlimit:2.61313}
    .str1 {stroke:black;stroke-width:4.67;stroke-miterlimit:2.61313}
    .str3 {stroke:#663333;stroke-width:4.67;stroke-miterlimit:2.61313}
    .str7 {stroke:#9900CC;stroke-width:4.67;stroke-miterlimit:2.61313}
    .str2 {stroke:#99CCCC;stroke-width:4.67;stroke-miterlimit:2.61313}
    .str0 {stroke:#FF6600;stroke-width:4.67;stroke-miterlimit:2.61313}
    .str5 {stroke:#FF6FAB;stroke-width:4.67;stroke-miterlimit:2.61313}
    .str4 {stroke:#FF99CC;stroke-width:4.67;stroke-miterlimit:2.61313}
    .fil5 {fill:none}
    .fil14 {fill:black}
    .fil6 {fill:black}
    .fil8 {fill:#003333}
    .fil9 {fill:#663333}
    .fil7 {fill:#99CCCC}
    .fil12 {fill:#FF5BBA}
    .fil4 {fill:#FF6FAB}
    .fil13 {fill:#FF6FAB}
    .fil2 {fill:#FF6FAB}
    .fil10 {fill:#FF99CC}
    .fil0 {fill:#FFCCCC}
    .fil3 {fill:yellow}
    .fil11 {fill:yellow}
    .fil1 {fill:yellow}
   ]]>
  </style>
 </defs>
 <g id="Layer_x0020_1">
  <metadata id="CorelCorpID_0Corel-Layer"/>
  <g id="_942307968">
   <ellipse class="fil0" cx="355.46" cy="299.22" rx="150.11" ry="152.69"/>
   <g>
    <circle class="fil1" cx="355.56" cy="146.5" r="3.3"/>
    <path class="fil2" d="M355.72 149.79c0,0 -5.47,12.73 -0.76,15.05 4.7,2.31 5.85,-7.25 0.76,-15.05z"/>
    <path class="fil2" d="M357.03 149.45c0,0 0.15,13.85 5.39,14.07 5.24,0.22 2.42,-8.99 -5.39,-14.07z"/>
    <path class="fil2" d="M358.19 148.49c0,0 6.3,12.33 11.09,10.19 4.79,-2.14 -1.84,-9.13 -11.09,-10.19z"/>
    <path class="fil2" d="M358.8 147.11c0,0 11.14,8.22 14.47,4.17 3.34,-4.05 -5.71,-7.34 -14.47,-4.17z"/>
    <path class="fil2" d="M358.73 145.6c0,0 13.64,2.4 14.82,-2.71 1.18,-5.11 -8.4,-4.03 -14.82,2.71z"/>
    <path class="fil2" d="M358 144.28c0,0 13.27,-3.93 12.05,-9.03 -1.22,-5.1 -9.31,0.13 -12.05,9.03z"/>
    <path class="fil2" d="M356.75 143.43c0,0 10.13,-9.44 6.76,-13.46 -3.37,-4.02 -8.27,4.27 -6.76,13.46z"/>
    <path class="fil2" d="M355.26 143.22c0,0 4.86,-12.96 0.05,-15.06 -4.81,-2.09 -5.5,7.51 -0.05,15.06z"/>
    <path class="fil2" d="M353.83 143.7c0,0 -1.43,-13.77 -6.67,-13.5 -5.24,0.26 -1.58,9.17 6.67,13.5z"/>
    <path class="fil2" d="M352.76 144.77c0,0 -7.41,-11.69 -11.99,-9.12 -4.57,2.58 2.68,8.92 11.99,9.12z"/>
    <path class="fil2" d="M352.28 146.2c0,0 -11.85,-7.16 -14.79,-2.82 -2.95,4.34 6.37,6.79 14.79,2.82z"/>
    <path class="fil2" d="M352.49 147.69c0,0 -13.8,-1.12 -14.5,4.08 -0.7,5.2 8.73,3.23 14.5,-4.08z"/>
    <path class="fil2" d="M353.35 148.94c0,0 -12.86,5.14 -11.17,10.11 1.69,4.96 9.26,-1 11.17,-10.11z"/>
    <path class="fil2" d="M354.38 149.58c0,0 -10.11,9.45 -6.74,13.47 3.38,4.01 8.27,-4.29 6.74,-13.47z"/>
   </g>
   <g>
    <g>
     <path class="fil3" d="M398.19 149.49c1.82,0 3.3,1.48 3.3,3.29 0,1.83 -1.48,3.3 -3.3,3.3 -1.82,0 -3.3,-1.47 -3.3,-3.3 0,-1.81 1.48,-3.29 3.3,-3.29z"/>
     <path class="fil4" d="M398.34 156.08c0,0 -5.46,12.72 -0.75,15.04 4.7,2.32 5.84,-7.25 0.75,-15.04z"/>
     <path class="fil4" d="M399.66 155.74c0,0 0.14,13.84 5.39,14.06 5.24,0.22 2.42,-8.99 -5.39,-14.06z"/>
     <path class="fil4" d="M400.82 154.77c0,0 6.3,12.33 11.09,10.19 4.79,-2.14 -1.84,-9.13 -11.09,-10.19z"/>
     <path class="fil4" d="M401.43 153.39c0,0 11.13,8.23 14.47,4.18 3.33,-4.05 -5.72,-7.35 -14.47,-4.18z"/>
     <path class="fil4" d="M401.36 151.88c0,0 13.64,2.4 14.81,-2.71 1.18,-5.11 -8.39,-4.03 -14.81,2.71z"/>
     <path class="fil4" d="M400.63 150.57c0,0 13.27,-3.93 12.05,-9.03 -1.23,-5.11 -9.31,0.13 -12.05,9.03z"/>
     <path class="fil4" d="M399.38 149.71c0,0 10.13,-9.43 6.76,-13.45 -3.37,-4.02 -8.27,4.27 -6.76,13.45z"/>
     <path class="fil4" d="M397.89 149.51c0,0 4.86,-12.97 0.05,-15.06 -4.81,-2.1 -5.5,7.51 -0.05,15.06z"/>
     <path class="fil4" d="M396.46 149.98c0,0 -1.43,-13.76 -6.67,-13.5 -5.24,0.27 -1.58,9.18 6.67,13.5z"/>
     <path class="fil4" d="M395.39 151.05c0,0 -7.42,-11.69 -11.99,-9.11 -4.57,2.57 2.68,8.91 11.99,9.11z"/>
     <path class="fil4" d="M394.91 152.48c0,0 -11.85,-7.15 -14.79,-2.81 -2.95,4.34 6.37,6.79 14.79,2.81z"/>
     <path class="fil4" d="M395.12 153.98c0,0 -13.8,-1.13 -14.5,4.07 -0.7,5.2 8.73,3.24 14.5,-4.07z"/>
     <path class="fil4" d="M395.97 155.22c0,0 -12.85,5.15 -11.16,10.11 1.69,4.97 9.26,-0.99 11.16,-10.11z"/>
     <path class="fil4" d="M397.01 155.86c0,0 -10.11,9.46 -6.74,13.47 3.38,4.01 8.27,-4.28 6.74,-13.47z"/>
    </g>
    <g>
     <path class="fil3" d="M437.2 167.79c1.82,0 3.29,1.47 3.29,3.29 0,1.82 -1.47,3.3 -3.29,3.3 -1.82,0 -3.3,-1.48 -3.3,-3.3 0,-1.82 1.48,-3.29 3.3,-3.29z"/>
     <path class="fil4" d="M437.35 174.37c0,0 -5.46,12.73 -0.76,15.05 4.7,2.31 5.85,-7.25 0.76,-15.05z"/>
     <path class="fil4" d="M438.67 174.03c0,0 0.14,13.85 5.38,14.07 5.24,0.22 2.42,-8.99 -5.38,-14.07z"/>
     <path class="fil4" d="M439.83 173.07c0,0 6.3,12.33 11.09,10.19 4.79,-2.14 -1.84,-9.13 -11.09,-10.19z"/>
     <path class="fil4" d="M440.44 171.69c0,0 11.13,8.22 14.46,4.17 3.34,-4.05 -5.71,-7.34 -14.46,-4.17z"/>
     <path class="fil4" d="M440.36 170.18c0,0 13.64,2.4 14.82,-2.71 1.18,-5.11 -8.4,-4.03 -14.82,2.71z"/>
     <path class="fil4" d="M439.63 168.86c0,0 13.27,-3.93 12.05,-9.03 -1.22,-5.1 -9.31,0.13 -12.05,9.03z"/>
     <path class="fil4" d="M438.38 168.01c0,0 10.14,-9.44 6.76,-13.46 -3.36,-4.02 -8.27,4.27 -6.76,13.46z"/>
     <path class="fil4" d="M436.89 167.8c0,0 4.86,-12.96 0.05,-15.06 -4.8,-2.09 -5.5,7.51 -0.05,15.06z"/>
     <path class="fil4" d="M435.46 168.28c0,0 -1.43,-13.77 -6.67,-13.5 -5.23,0.26 -1.58,9.17 6.67,13.5z"/>
     <path class="fil4" d="M434.39 169.35c0,0 -7.41,-11.69 -11.98,-9.12 -4.57,2.58 2.67,8.92 11.98,9.12z"/>
     <path class="fil4" d="M433.91 170.78c0,0 -11.85,-7.16 -14.79,-2.82 -2.94,4.34 6.37,6.79 14.79,2.82z"/>
     <path class="fil4" d="M434.12 172.27c0,0 -13.79,-1.12 -14.49,4.08 -0.7,5.2 8.73,3.23 14.49,-4.08z"/>
     <path class="fil4" d="M434.98 173.52c0,0 -12.86,5.14 -11.17,10.11 1.69,4.96 9.26,-1 11.17,-10.11z"/>
     <path class="fil4" d="M436.01 174.16c0,0 -10.11,9.45 -6.73,13.47 3.37,4.01 8.26,-4.29 6.73,-13.47z"/>
    </g>
    <g>
     <path class="fil3" d="M469.39 196.42c1.82,0 3.3,1.48 3.3,3.3 0,1.82 -1.48,3.29 -3.3,3.29 -1.82,0 -3.3,-1.47 -3.3,-3.29 0,-1.82 1.48,-3.3 3.3,-3.3z"/>
     <path class="fil4" d="M469.54 203.01c0,0 -5.46,12.72 -0.75,15.04 4.7,2.32 5.84,-7.24 0.75,-15.04z"/>
     <path class="fil4" d="M470.86 202.67c0,0 0.14,13.84 5.39,14.06 5.23,0.22 2.42,-8.99 -5.39,-14.06z"/>
     <path class="fil4" d="M472.02 201.7c0,0 6.3,12.33 11.09,10.19 4.79,-2.14 -1.84,-9.12 -11.09,-10.19z"/>
     <path class="fil4" d="M472.63 200.32c0,0 11.13,8.23 14.47,4.18 3.33,-4.05 -5.72,-7.35 -14.47,-4.18z"/>
     <path class="fil4" d="M472.56 198.82c0,0 13.63,2.4 14.81,-2.72 1.18,-5.1 -8.39,-4.03 -14.81,2.72z"/>
     <path class="fil4" d="M471.82 197.5c0,0 13.28,-3.93 12.06,-9.03 -1.23,-5.1 -9.31,0.13 -12.06,9.03z"/>
     <path class="fil4" d="M470.58 196.65c0,0 10.13,-9.44 6.76,-13.46 -3.37,-4.02 -8.27,4.27 -6.76,13.46z"/>
     <path class="fil4" d="M469.09 196.44c0,0 4.86,-12.96 0.05,-15.06 -4.81,-2.1 -5.51,7.51 -0.05,15.06z"/>
     <path class="fil4" d="M467.66 196.92c0,0 -1.43,-13.77 -6.67,-13.51 -5.24,0.27 -1.58,9.18 6.67,13.51z"/>
     <path class="fil4" d="M466.59 197.99c0,0 -7.42,-11.69 -11.99,-9.12 -4.57,2.57 2.68,8.92 11.99,9.12z"/>
     <path class="fil4" d="M466.11 199.42c0,0 -11.85,-7.16 -14.79,-2.82 -2.95,4.34 6.37,6.79 14.79,2.82z"/>
     <path class="fil4" d="M466.32 200.91c0,0 -13.8,-1.12 -14.5,4.07 -0.7,5.2 8.73,3.24 14.5,-4.07z"/>
     <path class="fil4" d="M467.17 202.16c0,0 -12.85,5.14 -11.16,10.11 1.69,4.96 9.26,-1 11.16,-10.11z"/>
     <path class="fil4" d="M468.21 202.79c0,0 -10.12,9.46 -6.74,13.47 3.37,4.02 8.27,-4.28 6.74,-13.47z"/>
    </g>
    <g>
     <path class="fil3" d="M492.3 232.92c1.82,0 3.29,1.48 3.29,3.29 0,1.83 -1.47,3.3 -3.29,3.3 -1.82,0 -3.3,-1.47 -3.3,-3.3 0,-1.81 1.48,-3.29 3.3,-3.29z"/>
     <path class="fil4" d="M492.45 239.51c0,0 -5.46,12.72 -0.76,15.04 4.71,2.32 5.85,-7.25 0.76,-15.04z"/>
     <path class="fil4" d="M493.77 239.17c0,0 0.14,13.84 5.38,14.06 5.24,0.22 2.42,-8.99 -5.38,-14.06z"/>
     <path class="fil4" d="M494.93 238.2c0,0 6.3,12.33 11.09,10.19 4.79,-2.14 -1.84,-9.13 -11.09,-10.19z"/>
     <path class="fil4" d="M495.54 236.82c0,0 11.13,8.23 14.47,4.18 3.33,-4.05 -5.72,-7.35 -14.47,-4.18z"/>
     <path class="fil4" d="M495.46 235.31c0,0 13.64,2.4 14.82,-2.71 1.18,-5.11 -8.39,-4.03 -14.82,2.71z"/>
     <path class="fil4" d="M494.73 234c0,0 13.27,-3.93 12.05,-9.04 -1.22,-5.1 -9.31,0.14 -12.05,9.04z"/>
     <path class="fil4" d="M493.49 233.14c0,0 10.13,-9.43 6.76,-13.45 -3.37,-4.02 -8.28,4.27 -6.76,13.45z"/>
     <path class="fil4" d="M491.99 232.93c0,0 4.86,-12.96 0.05,-15.05 -4.8,-2.1 -5.5,7.51 -0.05,15.05z"/>
     <path class="fil4" d="M490.56 233.41c0,0 -1.43,-13.76 -6.66,-13.5 -5.24,0.27 -1.58,9.18 6.66,13.5z"/>
     <path class="fil4" d="M489.5 234.48c0,0 -7.42,-11.69 -11.99,-9.11 -4.57,2.57 2.68,8.91 11.99,9.11z"/>
     <path class="fil4" d="M489.02 235.91c0,0 -11.85,-7.15 -14.8,-2.81 -2.94,4.34 6.37,6.79 14.8,2.81z"/>
     <path class="fil4" d="M489.23 237.41c0,0 -13.8,-1.13 -14.5,4.07 -0.7,5.2 8.73,3.24 14.5,-4.07z"/>
     <path class="fil4" d="M490.08 238.65c0,0 -12.85,5.15 -11.16,10.11 1.69,4.97 9.25,-0.99 11.16,-10.11z"/>
     <path class="fil4" d="M491.11 239.29c0,0 -10.11,9.46 -6.73,13.47 3.37,4.01 8.26,-4.28 6.73,-13.47z"/>
    </g>
    <g>
     <path class="fil3" d="M504.15 274.35c1.82,0 3.3,1.48 3.3,3.3 0,1.82 -1.48,3.29 -3.3,3.29 -1.82,0 -3.3,-1.47 -3.3,-3.29 0,-1.82 1.48,-3.3 3.3,-3.3z"/>
     <path class="fil4" d="M504.3 280.94c0,0 -5.46,12.72 -0.75,15.04 4.7,2.32 5.84,-7.24 0.75,-15.04z"/>
     <path class="fil4" d="M505.62 280.6c0,0 0.14,13.84 5.39,14.06 5.23,0.22 2.42,-8.99 -5.39,-14.06z"/>
     <path class="fil4" d="M506.78 279.63c0,0 6.3,12.33 11.09,10.19 4.79,-2.14 -1.84,-9.13 -11.09,-10.19z"/>
     <path class="fil4" d="M507.39 278.25c0,0 11.13,8.23 14.47,4.18 3.33,-4.05 -5.72,-7.35 -14.47,-4.18z"/>
     <path class="fil4" d="M507.32 276.75c0,0 13.63,2.4 14.81,-2.72 1.18,-5.11 -8.39,-4.03 -14.81,2.72z"/>
     <path class="fil4" d="M506.59 275.43c0,0 13.27,-3.93 12.05,-9.03 -1.23,-5.1 -9.31,0.13 -12.05,9.03z"/>
     <path class="fil4" d="M505.34 274.58c0,0 10.13,-9.44 6.76,-13.46 -3.37,-4.02 -8.27,4.27 -6.76,13.46z"/>
     <path class="fil4" d="M503.85 274.37c0,0 4.86,-12.96 0.05,-15.06 -4.81,-2.1 -5.51,7.51 -0.05,15.06z"/>
     <path class="fil4" d="M502.42 274.85c0,0 -1.43,-13.77 -6.67,-13.51 -5.24,0.27 -1.58,9.18 6.67,13.51z"/>
     <path class="fil4" d="M501.35 275.92c0,0 -7.42,-11.69 -11.99,-9.12 -4.57,2.57 2.68,8.91 11.99,9.12z"/>
     <path class="fil4" d="M500.87 277.35c0,0 -11.85,-7.16 -14.79,-2.82 -2.95,4.34 6.37,6.79 14.79,2.82z"/>
     <path class="fil4" d="M501.08 278.84c0,0 -13.8,-1.12 -14.5,4.07 -0.7,5.2 8.73,3.24 14.5,-4.07z"/>
     <path class="fil4" d="M501.93 280.09c0,0 -12.85,5.14 -11.16,10.1 1.69,4.97 9.26,-0.99 11.16,-10.1z"/>
     <path class="fil4" d="M502.97 280.72c0,0 -10.11,9.46 -6.74,13.47 3.37,4.02 8.27,-4.28 6.74,-13.47z"/>
    </g>
    <g>
     <path class="fil3" d="M504.15 317.45c1.82,0 3.3,1.48 3.3,3.3 0,1.82 -1.48,3.29 -3.3,3.29 -1.82,0 -3.29,-1.47 -3.29,-3.29 0,-1.82 1.47,-3.3 3.29,-3.3z"/>
     <path class="fil4" d="M504.3 324.04c0,0 -5.46,12.72 -0.75,15.04 4.7,2.32 5.84,-7.24 0.75,-15.04z"/>
     <path class="fil4" d="M505.62 323.7c0,0 0.15,13.84 5.39,14.06 5.24,0.23 2.42,-8.99 -5.39,-14.06z"/>
     <path class="fil4" d="M506.79 322.74c0,0 6.3,12.32 11.09,10.18 4.79,-2.13 -1.84,-9.12 -11.09,-10.18z"/>
     <path class="fil4" d="M507.39 321.36c0,0 11.14,8.22 14.47,4.17 3.33,-4.05 -5.71,-7.35 -14.47,-4.17z"/>
     <path class="fil4" d="M507.32 319.85c0,0 13.63,2.4 14.81,-2.71 1.18,-5.11 -8.39,-4.03 -14.81,2.71z"/>
     <path class="fil4" d="M506.59 318.53c0,0 13.27,-3.93 12.05,-9.03 -1.22,-5.1 -9.31,0.13 -12.05,9.03z"/>
     <path class="fil4" d="M505.34 317.68c0,0 10.13,-9.44 6.77,-13.46 -3.37,-4.02 -8.28,4.27 -6.77,13.46z"/>
     <path class="fil4" d="M503.85 317.47c0,0 4.86,-12.96 0.05,-15.06 -4.81,-2.1 -5.5,7.51 -0.05,15.06z"/>
     <path class="fil4" d="M502.42 317.95c0,0 -1.43,-13.77 -6.67,-13.51 -5.24,0.27 -1.58,9.18 6.67,13.51z"/>
     <path class="fil4" d="M501.35 319.02c0,0 -7.41,-11.69 -11.98,-9.12 -4.58,2.58 2.67,8.92 11.98,9.12z"/>
     <path class="fil4" d="M500.87 320.45c0,0 -11.85,-7.16 -14.79,-2.82 -2.94,4.34 6.37,6.79 14.79,2.82z"/>
     <path class="fil4" d="M501.08 321.94c0,0 -13.79,-1.13 -14.5,4.07 -0.7,5.2 8.73,3.24 14.5,-4.07z"/>
     <path class="fil4" d="M501.94 323.19c0,0 -12.86,5.14 -11.17,10.11 1.69,4.96 9.26,-1 11.17,-10.11z"/>
     <path class="fil4" d="M502.97 323.83c0,0 -10.11,9.45 -6.74,13.47 3.38,4.01 8.27,-4.29 6.74,-13.47z"/>
    </g>
    <g>
     <path class="fil3" d="M492.3 358.88c1.82,0 3.29,1.48 3.29,3.3 0,1.82 -1.47,3.29 -3.29,3.29 -1.82,0 -3.3,-1.47 -3.3,-3.29 0,-1.82 1.48,-3.3 3.3,-3.3z"/>
     <path class="fil4" d="M492.45 365.47c0,0 -5.46,12.72 -0.76,15.04 4.71,2.32 5.85,-7.24 0.76,-15.04z"/>
     <path class="fil4" d="M493.77 365.13c0,0 0.14,13.84 5.38,14.06 5.24,0.22 2.42,-8.99 -5.38,-14.06z"/>
     <path class="fil4" d="M494.93 364.17c0,0 6.3,12.32 11.09,10.18 4.79,-2.13 -1.84,-9.12 -11.09,-10.18z"/>
     <path class="fil4" d="M495.54 362.78c0,0 11.13,8.23 14.47,4.18 3.33,-4.05 -5.72,-7.35 -14.47,-4.18z"/>
     <path class="fil4" d="M495.46 361.28c0,0 13.64,2.4 14.82,-2.71 1.18,-5.11 -8.39,-4.04 -14.82,2.71z"/>
     <path class="fil4" d="M494.73 359.96c0,0 13.27,-3.93 12.05,-9.03 -1.22,-5.1 -9.31,0.13 -12.05,9.03z"/>
     <path class="fil4" d="M493.49 359.11c0,0 10.13,-9.44 6.76,-13.46 -3.37,-4.02 -8.28,4.27 -6.76,13.46z"/>
     <path class="fil4" d="M491.99 358.9c0,0 4.86,-12.96 0.05,-15.06 -4.8,-2.1 -5.5,7.51 -0.05,15.06z"/>
     <path class="fil4" d="M490.56 359.38c0,0 -1.43,-13.77 -6.66,-13.51 -5.24,0.27 -1.58,9.18 6.66,13.51z"/>
     <path class="fil4" d="M489.5 360.45c0,0 -7.42,-11.69 -11.99,-9.12 -4.57,2.57 2.68,8.92 11.99,9.12z"/>
     <path class="fil4" d="M489.02 361.88c0,0 -11.85,-7.16 -14.8,-2.82 -2.94,4.34 6.37,6.79 14.8,2.82z"/>
     <path class="fil4" d="M489.23 363.37c0,0 -13.8,-1.12 -14.5,4.07 -0.7,5.2 8.73,3.24 14.5,-4.07z"/>
     <path class="fil4" d="M490.08 364.62c0,0 -12.85,5.14 -11.16,10.11 1.69,4.96 9.25,-1 11.16,-10.11z"/>
     <path class="fil4" d="M491.11 365.25c0,0 -10.11,9.46 -6.73,13.47 3.37,4.02 8.26,-4.28 6.73,-13.47z"/>
    </g>
    <g>
     <path class="fil3" d="M469.39 395.38c1.82,0 3.29,1.48 3.29,3.3 0,1.82 -1.47,3.29 -3.29,3.29 -1.82,0 -3.3,-1.47 -3.3,-3.29 0,-1.82 1.48,-3.3 3.3,-3.3z"/>
     <path class="fil4" d="M469.54 401.97c0,0 -5.46,12.72 -0.76,15.04 4.71,2.32 5.85,-7.24 0.76,-15.04z"/>
     <path class="fil4" d="M470.86 401.63c0,0 0.14,13.84 5.38,14.06 5.24,0.22 2.42,-8.99 -5.38,-14.06z"/>
     <path class="fil4" d="M472.02 400.66c0,0 6.3,12.33 11.09,10.19 4.79,-2.14 -1.84,-9.12 -11.09,-10.19z"/>
     <path class="fil4" d="M472.63 399.28c0,0 11.13,8.23 14.47,4.18 3.33,-4.05 -5.72,-7.35 -14.47,-4.18z"/>
     <path class="fil4" d="M472.56 397.78c0,0 13.63,2.4 14.81,-2.72 1.18,-5.1 -8.39,-4.03 -14.81,2.72z"/>
     <path class="fil4" d="M471.82 396.46c0,0 13.27,-3.93 12.05,-9.03 -1.22,-5.1 -9.31,0.13 -12.05,9.03z"/>
     <path class="fil4" d="M470.58 395.61c0,0 10.13,-9.44 6.76,-13.46 -3.37,-4.02 -8.28,4.27 -6.76,13.46z"/>
     <path class="fil4" d="M469.08 395.4c0,0 4.86,-12.96 0.06,-15.06 -4.81,-2.1 -5.51,7.51 -0.06,15.06z"/>
     <path class="fil4" d="M467.65 395.88c0,0 -1.43,-13.77 -6.66,-13.51 -5.24,0.27 -1.58,9.18 6.66,13.51z"/>
     <path class="fil4" d="M466.59 396.95c0,0 -7.42,-11.69 -11.99,-9.12 -4.57,2.57 2.68,8.92 11.99,9.12z"/>
     <path class="fil4" d="M466.11 398.38c0,0 -11.85,-7.16 -14.8,-2.82 -2.94,4.34 6.37,6.79 14.8,2.82z"/>
     <path class="fil4" d="M466.32 399.87c0,0 -13.8,-1.12 -14.5,4.07 -0.7,5.2 8.73,3.24 14.5,-4.07z"/>
     <path class="fil4" d="M467.17 401.12c0,0 -12.85,5.14 -11.16,10.11 1.69,4.96 9.25,-1 11.16,-10.11z"/>
     <path class="fil4" d="M468.2 401.75c0,0 -10.11,9.46 -6.73,13.47 3.37,4.02 8.26,-4.28 6.73,-13.47z"/>
    </g>
    <g>
     <path class="fil3" d="M437.19 424.01c1.82,0 3.3,1.48 3.3,3.3 0,1.82 -1.48,3.3 -3.3,3.3 -1.82,0 -3.29,-1.48 -3.29,-3.3 0,-1.82 1.47,-3.3 3.29,-3.3z"/>
     <path class="fil4" d="M437.34 430.6c0,0 -5.46,12.73 -0.75,15.05 4.7,2.32 5.84,-7.25 0.75,-15.05z"/>
     <path class="fil4" d="M438.66 430.26c0,0 0.15,13.85 5.39,14.07 5.24,0.22 2.42,-8.99 -5.39,-14.07z"/>
     <path class="fil4" d="M439.83 429.3c0,0 6.3,12.33 11.09,10.19 4.79,-2.14 -1.85,-9.13 -11.09,-10.19z"/>
     <path class="fil4" d="M440.43 427.92c0,0 11.14,8.22 14.47,4.17 3.33,-4.05 -5.71,-7.35 -14.47,-4.17z"/>
     <path class="fil4" d="M440.36 426.41c0,0 13.63,2.4 14.81,-2.71 1.18,-5.11 -8.39,-4.03 -14.81,2.71z"/>
     <path class="fil4" d="M439.63 425.09c0,0 13.27,-3.93 12.05,-9.03 -1.22,-5.1 -9.31,0.13 -12.05,9.03z"/>
     <path class="fil4" d="M438.38 424.24c0,0 10.13,-9.43 6.76,-13.46 -3.36,-4.02 -8.27,4.27 -6.76,13.46z"/>
     <path class="fil4" d="M436.89 424.03c0,0 4.86,-12.96 0.05,-15.06 -4.81,-2.09 -5.5,7.51 -0.05,15.06z"/>
     <path class="fil4" d="M435.46 424.51c0,0 -1.43,-13.77 -6.67,-13.5 -5.24,0.26 -1.58,9.17 6.67,13.5z"/>
     <path class="fil4" d="M434.39 425.58c0,0 -7.41,-11.69 -11.98,-9.12 -4.58,2.58 2.67,8.92 11.98,9.12z"/>
     <path class="fil4" d="M433.91 427.01c0,0 -11.85,-7.16 -14.79,-2.82 -2.95,4.35 6.37,6.79 14.79,2.82z"/>
     <path class="fil4" d="M434.12 428.5c0,0 -13.79,-1.12 -14.5,4.08 -0.7,5.2 8.73,3.23 14.5,-4.08z"/>
     <path class="fil4" d="M434.98 429.75c0,0 -12.86,5.14 -11.17,10.11 1.69,4.97 9.26,-1 11.17,-10.11z"/>
     <path class="fil4" d="M436.01 430.39c0,0 -10.11,9.45 -6.74,13.47 3.38,4.01 8.27,-4.28 6.74,-13.47z"/>
    </g>
    <g>
     <path class="fil3" d="M398.19 442.31c1.82,0 3.3,1.48 3.3,3.3 0,1.82 -1.48,3.29 -3.3,3.29 -1.82,0 -3.3,-1.47 -3.3,-3.29 0,-1.82 1.48,-3.3 3.3,-3.3z"/>
     <path class="fil4" d="M398.34 448.9c0,0 -5.46,12.72 -0.76,15.04 4.71,2.32 5.85,-7.24 0.76,-15.04z"/>
     <path class="fil4" d="M399.66 448.56c0,0 0.14,13.84 5.38,14.06 5.24,0.22 2.43,-8.99 -5.38,-14.06z"/>
     <path class="fil4" d="M400.82 447.59c0,0 6.3,12.33 11.09,10.19 4.79,-2.14 -1.84,-9.12 -11.09,-10.19z"/>
     <path class="fil4" d="M401.43 446.21c0,0 11.13,8.23 14.47,4.18 3.33,-4.05 -5.72,-7.35 -14.47,-4.18z"/>
     <path class="fil4" d="M401.36 444.71c0,0 13.63,2.4 14.81,-2.72 1.18,-5.1 -8.39,-4.03 -14.81,2.72z"/>
     <path class="fil4" d="M400.62 443.39c0,0 13.28,-3.93 12.05,-9.03 -1.22,-5.1 -9.3,0.13 -12.05,9.03z"/>
     <path class="fil4" d="M399.38 442.54c0,0 10.13,-9.44 6.76,-13.46 -3.37,-4.02 -8.28,4.27 -6.76,13.46z"/>
     <path class="fil4" d="M397.88 442.33c0,0 4.87,-12.96 0.06,-15.06 -4.81,-2.1 -5.51,7.51 -0.06,15.06z"/>
     <path class="fil4" d="M396.45 442.81c0,0 -1.42,-13.77 -6.66,-13.51 -5.24,0.27 -1.58,9.18 6.66,13.51z"/>
     <path class="fil4" d="M395.39 443.88c0,0 -7.42,-11.69 -11.99,-9.12 -4.57,2.57 2.68,8.92 11.99,9.12z"/>
     <path class="fil4" d="M394.91 445.31c0,0 -11.85,-7.16 -14.8,-2.82 -2.94,4.34 6.38,6.79 14.8,2.82z"/>
     <path class="fil4" d="M395.12 446.8c0,0 -13.8,-1.12 -14.5,4.07 -0.7,5.2 8.73,3.24 14.5,-4.07z"/>
     <path class="fil4" d="M395.97 448.05c0,0 -12.85,5.14 -11.16,10.11 1.69,4.96 9.25,-1 11.16,-10.11z"/>
     <path class="fil4" d="M397 448.68c0,0 -10.11,9.46 -6.73,13.47 3.37,4.02 8.26,-4.28 6.73,-13.47z"/>
    </g>
    <g>
     <path class="fil3" d="M355.56 448.59c1.82,0 3.3,1.48 3.3,3.3 0,1.82 -1.48,3.3 -3.3,3.3 -1.82,0 -3.29,-1.48 -3.29,-3.3 0,-1.82 1.47,-3.3 3.29,-3.3z"/>
     <path class="fil4" d="M355.71 455.18c0,0 -5.46,12.72 -0.75,15.04 4.7,2.32 5.84,-7.24 0.75,-15.04z"/>
     <path class="fil4" d="M357.03 454.84c0,0 0.15,13.84 5.39,14.06 5.24,0.23 2.42,-8.99 -5.39,-14.06z"/>
     <path class="fil4" d="M358.19 453.88c0,0 6.3,12.32 11.09,10.18 4.79,-2.13 -1.84,-9.12 -11.09,-10.18z"/>
     <path class="fil4" d="M358.8 452.5c0,0 11.14,8.22 14.47,4.17 3.33,-4.05 -5.71,-7.35 -14.47,-4.17z"/>
     <path class="fil4" d="M358.73 450.99c0,0 13.63,2.4 14.81,-2.71 1.18,-5.11 -8.39,-4.03 -14.81,2.71z"/>
     <path class="fil4" d="M357.99 449.67c0,0 13.28,-3.93 12.06,-9.03 -1.23,-5.1 -9.31,0.13 -12.06,9.03z"/>
     <path class="fil4" d="M356.75 448.82c0,0 10.13,-9.44 6.76,-13.46 -3.37,-4.02 -8.27,4.27 -6.76,13.46z"/>
     <path class="fil4" d="M355.26 448.61c0,0 4.86,-12.96 0.05,-15.06 -4.81,-2.1 -5.5,7.51 -0.05,15.06z"/>
     <path class="fil4" d="M353.83 449.09c0,0 -1.43,-13.77 -6.67,-13.5 -5.24,0.26 -1.58,9.17 6.67,13.5z"/>
     <path class="fil4" d="M352.76 450.16c0,0 -7.42,-11.69 -11.99,-9.12 -4.57,2.58 2.68,8.92 11.99,9.12z"/>
     <path class="fil4" d="M352.28 451.59c0,0 -11.85,-7.16 -14.79,-2.82 -2.95,4.34 6.37,6.79 14.79,2.82z"/>
     <path class="fil4" d="M352.49 453.08c0,0 -13.8,-1.12 -14.5,4.08 -0.7,5.2 8.73,3.23 14.5,-4.08z"/>
     <path class="fil4" d="M353.34 454.33c0,0 -12.85,5.14 -11.16,10.11 1.69,4.96 9.26,-1 11.16,-10.11z"/>
     <path class="fil4" d="M354.38 454.97c0,0 -10.12,9.45 -6.74,13.47 3.38,4.01 8.27,-4.29 6.74,-13.47z"/>
    </g>
    <g>
     <path class="fil3" d="M312.94 442.31c1.82,0 3.29,1.48 3.29,3.3 0,1.82 -1.47,3.29 -3.29,3.29 -1.82,0 -3.3,-1.47 -3.3,-3.29 0,-1.82 1.48,-3.3 3.3,-3.3z"/>
     <path class="fil4" d="M313.09 448.9c0,0 -5.46,12.72 -0.76,15.04 4.71,2.32 5.85,-7.25 0.76,-15.04z"/>
     <path class="fil4" d="M314.4 448.56c0,0 0.15,13.84 5.39,14.06 5.24,0.22 2.42,-8.99 -5.39,-14.06z"/>
     <path class="fil4" d="M315.56 447.59c0,0 6.3,12.33 11.09,10.19 4.79,-2.14 -1.83,-9.13 -11.09,-10.19z"/>
     <path class="fil4" d="M316.18 446.21c0,0 11.13,8.23 14.47,4.18 3.33,-4.05 -5.72,-7.35 -14.47,-4.18z"/>
     <path class="fil4" d="M316.11 444.7c0,0 13.63,2.4 14.81,-2.71 1.18,-5.11 -8.39,-4.03 -14.81,2.71z"/>
     <path class="fil4" d="M315.37 443.39c0,0 13.27,-3.93 12.05,-9.03 -1.22,-5.11 -9.31,0.13 -12.05,9.03z"/>
     <path class="fil4" d="M314.12 442.54c0,0 10.13,-9.44 6.76,-13.46 -3.36,-4.02 -8.27,4.27 -6.76,13.46z"/>
     <path class="fil4" d="M312.63 442.33c0,0 4.86,-12.97 0.06,-15.06 -4.81,-2.1 -5.51,7.51 -0.06,15.06z"/>
     <path class="fil4" d="M311.2 442.81c0,0 -1.43,-13.77 -6.66,-13.51 -5.24,0.27 -1.58,9.18 6.66,13.51z"/>
     <path class="fil4" d="M310.13 443.87c0,0 -7.41,-11.69 -11.99,-9.11 -4.56,2.57 2.68,8.91 11.99,9.11z"/>
     <path class="fil4" d="M309.65 445.3c0,0 -11.85,-7.15 -14.79,-2.81 -2.94,4.34 6.37,6.79 14.79,2.81z"/>
     <path class="fil4" d="M309.86 446.8c0,0 -13.8,-1.12 -14.5,4.07 -0.7,5.2 8.73,3.24 14.5,-4.07z"/>
     <path class="fil4" d="M310.72 448.04c0,0 -12.86,5.15 -11.17,10.11 1.69,4.97 9.26,-0.99 11.17,-10.11z"/>
     <path class="fil4" d="M311.75 448.68c0,0 -10.11,9.46 -6.73,13.47 3.37,4.01 8.26,-4.28 6.73,-13.47z"/>
    </g>
    <g>
     <path class="fil3" d="M273.93 424.01c1.82,0 3.3,1.48 3.3,3.3 0,1.82 -1.48,3.3 -3.3,3.3 -1.82,0 -3.29,-1.48 -3.29,-3.3 0,-1.82 1.47,-3.3 3.29,-3.3z"/>
     <path class="fil4" d="M274.08 430.6c0,0 -5.46,12.72 -0.75,15.04 4.7,2.32 5.84,-7.24 0.75,-15.04z"/>
     <path class="fil4" d="M275.4 430.26c0,0 0.15,13.84 5.39,14.06 5.24,0.23 2.42,-8.99 -5.39,-14.06z"/>
     <path class="fil4" d="M276.56 429.3c0,0 6.3,12.32 11.09,10.18 4.79,-2.13 -1.84,-9.12 -11.09,-10.18z"/>
     <path class="fil4" d="M277.17 427.92c0,0 11.14,8.22 14.47,4.17 3.33,-4.05 -5.71,-7.35 -14.47,-4.17z"/>
     <path class="fil4" d="M277.1 426.41c0,0 13.63,2.4 14.81,-2.71 1.18,-5.11 -8.39,-4.03 -14.81,2.71z"/>
     <path class="fil4" d="M276.36 425.09c0,0 13.28,-3.93 12.06,-9.03 -1.23,-5.1 -9.31,0.13 -12.06,9.03z"/>
     <path class="fil4" d="M275.12 424.24c0,0 10.13,-9.44 6.76,-13.46 -3.37,-4.02 -8.27,4.27 -6.76,13.46z"/>
     <path class="fil4" d="M273.63 424.03c0,0 4.86,-12.96 0.05,-15.06 -4.81,-2.1 -5.5,7.51 -0.05,15.06z"/>
     <path class="fil4" d="M272.2 424.51c0,0 -1.43,-13.77 -6.67,-13.5 -5.24,0.26 -1.58,9.17 6.67,13.5z"/>
     <path class="fil4" d="M271.13 425.58c0,0 -7.42,-11.69 -11.99,-9.12 -4.57,2.58 2.68,8.92 11.99,9.12z"/>
     <path class="fil4" d="M270.65 427.01c0,0 -11.85,-7.16 -14.79,-2.82 -2.95,4.34 6.37,6.79 14.79,2.82z"/>
     <path class="fil4" d="M270.86 428.5c0,0 -13.8,-1.12 -14.5,4.08 -0.7,5.2 8.73,3.23 14.5,-4.08z"/>
     <path class="fil4" d="M271.71 429.75c0,0 -12.85,5.14 -11.16,10.11 1.69,4.96 9.26,-1 11.16,-10.11z"/>
     <path class="fil4" d="M272.75 430.39c0,0 -10.11,9.45 -6.74,13.47 3.38,4.01 8.27,-4.29 6.74,-13.47z"/>
    </g>
    <g>
     <path class="fil3" d="M241.74 395.38c1.82,0 3.29,1.48 3.29,3.3 0,1.82 -1.47,3.29 -3.29,3.29 -1.82,0 -3.3,-1.47 -3.3,-3.29 0,-1.82 1.48,-3.3 3.3,-3.3z"/>
     <path class="fil4" d="M241.89 401.97c0,0 -5.46,12.72 -0.76,15.04 4.71,2.32 5.85,-7.25 0.76,-15.04z"/>
     <path class="fil4" d="M243.21 401.63c0,0 0.14,13.84 5.38,14.06 5.24,0.22 2.42,-8.99 -5.38,-14.06z"/>
     <path class="fil4" d="M244.37 400.66c0,0 6.3,12.33 11.09,10.19 4.79,-2.14 -1.85,-9.13 -11.09,-10.19z"/>
     <path class="fil4" d="M244.98 399.28c0,0 11.13,8.23 14.46,4.18 3.34,-4.05 -5.71,-7.35 -14.46,-4.18z"/>
     <path class="fil4" d="M244.91 397.78c0,0 13.63,2.39 14.81,-2.72 1.18,-5.11 -8.39,-4.03 -14.81,2.72z"/>
     <path class="fil4" d="M244.17 396.46c0,0 13.28,-3.93 12.05,-9.03 -1.22,-5.1 -9.31,0.13 -12.05,9.03z"/>
     <path class="fil4" d="M242.92 395.6c0,0 10.14,-9.43 6.77,-13.45 -3.37,-4.02 -8.28,4.27 -6.77,13.45z"/>
     <path class="fil4" d="M241.43 395.4c0,0 4.86,-12.97 0.06,-15.06 -4.81,-2.1 -5.51,7.51 -0.06,15.06z"/>
     <path class="fil4" d="M240 395.88c0,0 -1.43,-13.77 -6.66,-13.51 -5.24,0.27 -1.58,9.18 6.66,13.51z"/>
     <path class="fil4" d="M238.93 396.94c0,0 -7.41,-11.69 -11.98,-9.11 -4.57,2.57 2.67,8.92 11.98,9.11z"/>
     <path class="fil4" d="M238.45 398.37c0,0 -11.84,-7.15 -14.79,-2.81 -2.94,4.34 6.37,6.79 14.79,2.81z"/>
     <path class="fil4" d="M238.66 399.87c0,0 -13.79,-1.13 -14.49,4.07 -0.7,5.2 8.73,3.24 14.49,-4.07z"/>
     <path class="fil4" d="M239.52 401.11c0,0 -12.86,5.15 -11.16,10.11 1.69,4.97 9.25,-0.99 11.16,-10.11z"/>
     <path class="fil4" d="M240.55 401.75c0,0 -10.11,9.46 -6.73,13.47 3.37,4.02 8.26,-4.28 6.73,-13.47z"/>
    </g>
    <g>
     <path class="fil3" d="M218.83 358.88c1.82,0 3.3,1.48 3.3,3.3 0,1.82 -1.48,3.29 -3.3,3.29 -1.82,0 -3.3,-1.47 -3.3,-3.29 0,-1.82 1.48,-3.3 3.3,-3.3z"/>
     <path class="fil4" d="M218.98 365.47c0,0 -5.46,12.72 -0.75,15.04 4.7,2.32 5.84,-7.24 0.75,-15.04z"/>
     <path class="fil4" d="M220.3 365.13c0,0 0.14,13.84 5.38,14.06 5.24,0.22 2.43,-8.99 -5.38,-14.06z"/>
     <path class="fil4" d="M221.46 364.16c0,0 6.3,12.33 11.09,10.19 4.79,-2.14 -1.84,-9.13 -11.09,-10.19z"/>
     <path class="fil4" d="M222.07 362.78c0,0 11.13,8.23 14.47,4.18 3.33,-4.05 -5.72,-7.35 -14.47,-4.18z"/>
     <path class="fil4" d="M222 361.27c0,0 13.64,2.4 14.81,-2.71 1.18,-5.11 -8.39,-4.03 -14.81,2.71z"/>
     <path class="fil4" d="M221.26 359.96c0,0 13.28,-3.93 12.05,-9.03 -1.22,-5.11 -9.3,0.13 -12.05,9.03z"/>
     <path class="fil4" d="M220.02 359.11c0,0 10.13,-9.44 6.76,-13.46 -3.37,-4.02 -8.28,4.27 -6.76,13.46z"/>
     <path class="fil4" d="M218.53 358.9c0,0 4.86,-12.96 0.05,-15.06 -4.81,-2.1 -5.5,7.51 -0.05,15.06z"/>
     <path class="fil4" d="M217.1 359.38c0,0 -1.43,-13.77 -6.67,-13.51 -5.24,0.27 -1.58,9.18 6.67,13.51z"/>
     <path class="fil4" d="M216.03 360.44c0,0 -7.42,-11.69 -11.99,-9.11 -4.57,2.57 2.68,8.91 11.99,9.11z"/>
     <path class="fil4" d="M215.55 361.88c0,0 -11.85,-7.16 -14.8,-2.82 -2.94,4.34 6.38,6.79 14.8,2.82z"/>
     <path class="fil4" d="M215.76 363.37c0,0 -13.8,-1.12 -14.5,4.07 -0.7,5.2 8.73,3.24 14.5,-4.07z"/>
     <path class="fil4" d="M216.61 364.61c0,0 -12.85,5.15 -11.16,10.11 1.69,4.97 9.25,-0.99 11.16,-10.11z"/>
     <path class="fil4" d="M217.64 365.25c0,0 -10.11,9.46 -6.73,13.47 3.37,4.01 8.26,-4.28 6.73,-13.47z"/>
    </g>
    <g>
     <path class="fil3" d="M206.98 317.45c1.82,0 3.29,1.47 3.29,3.3 0,1.81 -1.47,3.29 -3.29,3.29 -1.82,0 -3.3,-1.48 -3.3,-3.29 0,-1.83 1.48,-3.3 3.3,-3.3z"/>
     <path class="fil4" d="M207.13 324.04c0,0 -5.46,12.72 -0.76,15.04 4.7,2.32 5.85,-7.25 0.76,-15.04z"/>
     <path class="fil4" d="M208.45 323.69c0,0 0.14,13.85 5.38,14.07 5.24,0.22 2.42,-8.99 -5.38,-14.07z"/>
     <path class="fil4" d="M209.61 322.73c0,0 6.3,12.33 11.09,10.19 4.79,-2.14 -1.84,-9.13 -11.09,-10.19z"/>
     <path class="fil4" d="M210.21 321.35c0,0 11.14,8.23 14.47,4.18 3.34,-4.05 -5.71,-7.35 -14.47,-4.18z"/>
     <path class="fil4" d="M210.15 319.84c0,0 13.63,2.4 14.81,-2.71 1.18,-5.11 -8.39,-4.03 -14.81,2.71z"/>
     <path class="fil4" d="M209.41 318.52c0,0 13.28,-3.93 12.05,-9.03 -1.22,-5.09 -9.31,0.14 -12.05,9.03z"/>
     <path class="fil4" d="M208.16 317.67c0,0 10.14,-9.43 6.77,-13.45 -3.37,-4.02 -8.28,4.27 -6.77,13.45z"/>
     <path class="fil4" d="M206.67 317.47c0,0 4.86,-12.97 0.06,-15.06 -4.81,-2.1 -5.51,7.51 -0.06,15.06z"/>
     <path class="fil4" d="M205.24 317.95c0,0 -1.43,-13.78 -6.66,-13.51 -5.24,0.27 -1.58,9.18 6.66,13.51z"/>
     <path class="fil4" d="M204.17 319.01c0,0 -7.41,-11.69 -11.98,-9.11 -4.57,2.57 2.67,8.91 11.98,9.11z"/>
     <path class="fil4" d="M203.69 320.44c0,0 -11.84,-7.15 -14.79,-2.81 -2.94,4.34 6.37,6.78 14.79,2.81z"/>
     <path class="fil4" d="M203.9 321.94c0,0 -13.79,-1.13 -14.49,4.07 -0.7,5.2 8.73,3.24 14.49,-4.07z"/>
     <path class="fil4" d="M204.76 323.18c0,0 -12.86,5.14 -11.16,10.11 1.69,4.97 9.25,-0.99 11.16,-10.11z"/>
     <path class="fil4" d="M205.79 323.82c0,0 -10.11,9.45 -6.73,13.47 3.37,4.02 8.26,-4.28 6.73,-13.47z"/>
    </g>
    <g>
     <path class="fil3" d="M206.97 274.34c1.83,0 3.3,1.48 3.3,3.3 0,1.82 -1.47,3.3 -3.3,3.3 -1.82,0 -3.29,-1.48 -3.29,-3.3 0,-1.82 1.47,-3.3 3.29,-3.3z"/>
     <path class="fil4" d="M207.13 280.93c0,0 -5.47,12.73 -0.76,15.05 4.7,2.32 5.85,-7.25 0.76,-15.05z"/>
     <path class="fil4" d="M208.44 280.59c0,0 0.15,13.85 5.39,14.07 5.24,0.22 2.42,-8.99 -5.39,-14.07z"/>
     <path class="fil4" d="M209.61 279.63c0,0 6.3,12.33 11.09,10.19 4.79,-2.14 -1.85,-9.13 -11.09,-10.19z"/>
     <path class="fil4" d="M210.21 278.25c0,0 11.14,8.22 14.47,4.18 3.34,-4.05 -5.71,-7.35 -14.47,-4.18z"/>
     <path class="fil4" d="M210.14 276.74c0,0 13.64,2.4 14.82,-2.71 1.18,-5.11 -8.4,-4.03 -14.82,2.71z"/>
     <path class="fil4" d="M209.41 275.42c0,0 13.27,-3.93 12.05,-9.03 -1.22,-5.1 -9.31,0.13 -12.05,9.03z"/>
     <path class="fil4" d="M208.16 274.57c0,0 10.13,-9.44 6.76,-13.46 -3.36,-4.02 -8.27,4.27 -6.76,13.46z"/>
     <path class="fil4" d="M206.67 274.36c0,0 4.86,-12.96 0.05,-15.06 -4.81,-2.09 -5.5,7.51 -0.05,15.06z"/>
     <path class="fil4" d="M205.24 274.84c0,0 -1.43,-13.77 -6.67,-13.5 -5.23,0.26 -1.58,9.17 6.67,13.5z"/>
     <path class="fil4" d="M204.17 275.91c0,0 -7.41,-11.69 -11.98,-9.12 -4.58,2.58 2.67,8.92 11.98,9.12z"/>
     <path class="fil4" d="M203.69 277.34c0,0 -11.85,-7.16 -14.79,-2.82 -2.95,4.34 6.37,6.79 14.79,2.82z"/>
     <path class="fil4" d="M203.9 278.84c0,0 -13.79,-1.13 -14.5,4.07 -0.7,5.2 8.73,3.24 14.5,-4.07z"/>
     <path class="fil4" d="M204.76 280.08c0,0 -12.86,5.14 -11.17,10.11 1.69,4.96 9.26,-1 11.17,-10.11z"/>
     <path class="fil4" d="M205.79 280.72c0,0 -10.11,9.45 -6.74,13.47 3.38,4.01 8.27,-4.29 6.74,-13.47z"/>
    </g>
    <g>
     <path class="fil3" d="M218.83 232.92c1.82,0 3.3,1.47 3.3,3.29 0,1.82 -1.48,3.3 -3.3,3.3 -1.82,0 -3.3,-1.48 -3.3,-3.3 0,-1.82 1.48,-3.29 3.3,-3.29z"/>
     <path class="fil4" d="M218.98 239.5c0,0 -5.46,12.73 -0.76,15.05 4.71,2.32 5.85,-7.25 0.76,-15.05z"/>
     <path class="fil4" d="M220.3 239.16c0,0 0.14,13.85 5.38,14.07 5.25,0.22 2.43,-8.99 -5.38,-14.07z"/>
     <path class="fil4" d="M221.46 238.2c0,0 6.3,12.33 11.09,10.19 4.79,-2.14 -1.84,-9.13 -11.09,-10.19z"/>
     <path class="fil4" d="M222.07 236.82c0,0 11.13,8.22 14.47,4.18 3.33,-4.05 -5.72,-7.35 -14.47,-4.18z"/>
     <path class="fil4" d="M222 235.31c0,0 13.63,2.4 14.81,-2.71 1.18,-5.11 -8.39,-4.03 -14.81,2.71z"/>
     <path class="fil4" d="M221.26 233.99c0,0 13.28,-3.93 12.05,-9.03 -1.22,-5.1 -9.3,0.13 -12.05,9.03z"/>
     <path class="fil4" d="M220.02 233.14c0,0 10.13,-9.43 6.76,-13.46 -3.37,-4.02 -8.27,4.27 -6.76,13.46z"/>
     <path class="fil4" d="M218.52 232.93c0,0 4.87,-12.96 0.06,-15.06 -4.81,-2.09 -5.5,7.51 -0.06,15.06z"/>
     <path class="fil4" d="M217.09 233.41c0,0 -1.42,-13.77 -6.66,-13.5 -5.24,0.26 -1.58,9.17 6.66,13.5z"/>
     <path class="fil4" d="M216.03 234.48c0,0 -7.42,-11.69 -11.99,-9.12 -4.57,2.58 2.68,8.92 11.99,9.12z"/>
     <path class="fil4" d="M215.55 235.91c0,0 -11.85,-7.16 -14.8,-2.82 -2.94,4.35 6.38,6.79 14.8,2.82z"/>
     <path class="fil4" d="M215.76 237.41c0,0 -13.8,-1.13 -14.5,4.07 -0.7,5.2 8.73,3.24 14.5,-4.07z"/>
     <path class="fil4" d="M216.61 238.65c0,0 -12.85,5.14 -11.16,10.11 1.69,4.97 9.26,-1 11.16,-10.11z"/>
     <path class="fil4" d="M217.64 239.29c0,0 -10.11,9.45 -6.73,13.47 3.38,4.01 8.26,-4.28 6.73,-13.47z"/>
    </g>
    <g>
     <path class="fil3" d="M241.74 196.42c1.82,0 3.29,1.47 3.29,3.29 0,1.82 -1.47,3.3 -3.29,3.3 -1.82,0 -3.3,-1.48 -3.3,-3.3 0,-1.82 1.48,-3.29 3.3,-3.29z"/>
     <path class="fil4" d="M241.89 203.01c0,0 -5.46,12.72 -0.76,15.04 4.71,2.32 5.85,-7.25 0.76,-15.04z"/>
     <path class="fil4" d="M243.21 202.66c0,0 0.14,13.85 5.38,14.07 5.24,0.22 2.42,-8.99 -5.38,-14.07z"/>
     <path class="fil4" d="M244.37 201.7c0,0 6.3,12.33 11.09,10.19 4.79,-2.14 -1.84,-9.13 -11.09,-10.19z"/>
     <path class="fil4" d="M244.98 200.32c0,0 11.13,8.22 14.46,4.18 3.34,-4.05 -5.71,-7.35 -14.46,-4.18z"/>
     <path class="fil4" d="M244.91 198.81c0,0 13.63,2.4 14.81,-2.71 1.18,-5.11 -8.39,-4.03 -14.81,2.71z"/>
     <path class="fil4" d="M244.17 197.49c0,0 13.28,-3.93 12.05,-9.03 -1.22,-5.1 -9.31,0.13 -12.05,9.03z"/>
     <path class="fil4" d="M242.92 196.64c0,0 10.14,-9.43 6.77,-13.45 -3.37,-4.03 -8.28,4.26 -6.77,13.45z"/>
     <path class="fil4" d="M241.43 196.44c0,0 4.86,-12.97 0.06,-15.07 -4.81,-2.09 -5.51,7.51 -0.06,15.07z"/>
     <path class="fil4" d="M240 196.91c0,0 -1.43,-13.77 -6.66,-13.5 -5.24,0.27 -1.58,9.18 6.66,13.5z"/>
     <path class="fil4" d="M238.93 197.98c0,0 -7.41,-11.69 -11.98,-9.12 -4.57,2.58 2.67,8.92 11.98,9.12z"/>
     <path class="fil4" d="M238.45 199.41c0,0 -11.84,-7.16 -14.79,-2.81 -2.94,4.34 6.37,6.78 14.79,2.81z"/>
     <path class="fil4" d="M238.66 200.91c0,0 -13.79,-1.13 -14.49,4.07 -0.7,5.2 8.73,3.24 14.49,-4.07z"/>
     <path class="fil4" d="M239.52 202.15c0,0 -12.86,5.14 -11.16,10.11 1.69,4.97 9.25,-1 11.16,-10.11z"/>
     <path class="fil4" d="M240.55 202.79c0,0 -10.11,9.45 -6.73,13.47 3.37,4.01 8.26,-4.28 6.73,-13.47z"/>
    </g>
    <g>
     <path class="fil3" d="M273.93 167.78c1.82,0 3.3,1.48 3.3,3.3 0,1.82 -1.48,3.3 -3.3,3.3 -1.82,0 -3.29,-1.48 -3.29,-3.3 0,-1.82 1.47,-3.3 3.29,-3.3z"/>
     <path class="fil4" d="M274.08 174.37c0,0 -5.46,12.72 -0.75,15.04 4.7,2.32 5.84,-7.24 0.75,-15.04z"/>
     <path class="fil4" d="M275.4 174.03c0,0 0.15,13.84 5.39,14.06 5.24,0.23 2.42,-8.99 -5.39,-14.06z"/>
     <path class="fil4" d="M276.56 173.07c0,0 6.3,12.32 11.09,10.18 4.79,-2.13 -1.84,-9.12 -11.09,-10.18z"/>
     <path class="fil4" d="M277.17 171.69c0,0 11.14,8.22 14.47,4.17 3.33,-4.05 -5.71,-7.35 -14.47,-4.17z"/>
     <path class="fil4" d="M277.1 170.18c0,0 13.63,2.4 14.81,-2.71 1.18,-5.11 -8.39,-4.03 -14.81,2.71z"/>
     <path class="fil4" d="M276.36 168.86c0,0 13.28,-3.93 12.06,-9.03 -1.23,-5.1 -9.31,0.13 -12.06,9.03z"/>
     <path class="fil4" d="M275.12 168.01c0,0 10.13,-9.44 6.76,-13.46 -3.37,-4.02 -8.27,4.27 -6.76,13.46z"/>
     <path class="fil4" d="M273.63 167.8c0,0 4.86,-12.96 0.05,-15.06 -4.81,-2.1 -5.5,7.51 -0.05,15.06z"/>
     <path class="fil4" d="M272.2 168.28c0,0 -1.43,-13.77 -6.67,-13.5 -5.24,0.26 -1.58,9.17 6.67,13.5z"/>
     <path class="fil4" d="M271.13 169.35c0,0 -7.42,-11.69 -11.99,-9.12 -4.57,2.58 2.68,8.92 11.99,9.12z"/>
     <path class="fil4" d="M270.65 170.78c0,0 -11.85,-7.16 -14.79,-2.82 -2.95,4.34 6.37,6.79 14.79,2.82z"/>
     <path class="fil4" d="M270.86 172.27c0,0 -13.8,-1.12 -14.5,4.07 -0.7,5.21 8.73,3.24 14.5,-4.07z"/>
     <path class="fil4" d="M271.71 173.52c0,0 -12.85,5.14 -11.16,10.11 1.69,4.96 9.26,-1 11.16,-10.11z"/>
     <path class="fil4" d="M272.75 174.16c0,0 -10.11,9.45 -6.74,13.46 3.38,4.02 8.27,-4.28 6.74,-13.46z"/>
    </g>
   </g>
   <g>
    <circle class="fil1" cx="312.93" cy="152.79" r="3.3"/>
    <path class="fil2" d="M313.08 156.08c0,0 -5.46,12.72 -0.75,15.04 4.7,2.32 5.84,-7.25 0.75,-15.04z"/>
    <path class="fil2" d="M314.4 155.74c0,0 0.15,13.84 5.39,14.06 5.24,0.22 2.42,-8.99 -5.39,-14.06z"/>
    <path class="fil2" d="M315.56 154.77c0,0 6.3,12.33 11.09,10.19 4.79,-2.14 -1.84,-9.13 -11.09,-10.19z"/>
    <path class="fil2" d="M316.17 153.39c0,0 11.14,8.23 14.47,4.18 3.33,-4.05 -5.71,-7.35 -14.47,-4.18z"/>
    <path class="fil2" d="M316.1 151.89c0,0 13.64,2.39 14.82,-2.72 1.17,-5.11 -8.4,-4.03 -14.82,2.72z"/>
    <path class="fil2" d="M315.37 150.57c0,0 13.27,-3.93 12.05,-9.03 -1.23,-5.1 -9.31,0.13 -12.05,9.03z"/>
    <path class="fil2" d="M314.12 149.71c0,0 10.13,-9.43 6.76,-13.45 -3.36,-4.02 -8.27,4.27 -6.76,13.45z"/>
    <path class="fil2" d="M312.63 149.51c0,0 4.86,-12.97 0.05,-15.06 -4.81,-2.1 -5.5,7.51 -0.05,15.06z"/>
    <path class="fil2" d="M311.2 149.99c0,0 -1.43,-13.77 -6.67,-13.51 -5.24,0.27 -1.58,9.18 6.67,13.51z"/>
    <path class="fil2" d="M310.13 151.05c0,0 -7.42,-11.69 -11.99,-9.11 -4.57,2.57 2.68,8.92 11.99,9.11z"/>
    <path class="fil2" d="M309.65 152.48c0,0 -11.85,-7.15 -14.79,-2.81 -2.95,4.34 6.37,6.79 14.79,2.81z"/>
    <path class="fil2" d="M309.86 153.98c0,0 -13.8,-1.13 -14.5,4.07 -0.7,5.2 8.73,3.24 14.5,-4.07z"/>
    <path class="fil2" d="M310.71 155.22c0,0 -12.85,5.15 -11.16,10.11 1.69,4.97 9.26,-0.99 11.16,-10.11z"/>
    <path class="fil2" d="M311.75 155.86c0,0 -10.11,9.46 -6.74,13.47 3.38,4.02 8.27,-4.28 6.74,-13.47z"/>
   </g>
   <g>
    <path class="fil5 str0" d="M395.66 246.41c0,0 11.85,-9.51 10.63,7.2 -1.21,16.7 23.39,11.24 16.4,14.58 -6.98,3.34 -41.61,-2.13 -41.61,-2.13"/>
    <path class="fil6 str1" d="M243.38 337.47c0,0 1.01,-56.17 1.92,-77.79 0.91,-21.61 217.03,-13.06 216.9,-3.03 -0.13,10.03 4.91,75.55 -5.11,75.04 -10.02,-0.5 0.46,-0.02 -3.69,-0.18 -4.15,-0.16 -0.33,-62.35 -0.11,-69.96 0.2,-7.15 -90.87,-10.75 -91.89,-1.94 -1.02,8.82 5.14,73.98 -0.6,74.16 -5.75,0.19 -6.12,0.06 -10.45,-0.06 -4.34,-0.12 -4.36,-75.19 -4.36,-75.19 0,0 -90.02,-5.04 -88.97,12.89 1.05,17.93 -0.08,66.23 -5.8,66.2 -5.72,-0.03 -7.84,-0.14 -7.84,-0.14z"/>
    <path class="fil7 str2" d="M268.36 343.68c0,0 14.16,9.1 22.25,2.02 8.09,-7.08 -19.22,-8.09 -22.25,-2.02z"/>
    <path class="fil8" d="M278.47 342.67c0,0 1.01,-60.7 0,-67.78 -1.01,-7.08 8.09,-1.01 8.09,-1.01 0,0 -1.01,67.77 -2.02,67.77 -1.01,0 -4.31,2.39 -6.07,1.02z"/>
    <path class="fil9 str3" d="M284.96 267.97c0,0 -5.69,-14.64 -2.46,5.36 3.23,20 6.35,38.99 6.35,38.99 0,0 6.82,-2.79 5.26,-7.71 -1.57,-4.91 32.96,-33.16 -9.15,-36.64z"/>
    <g>
     <path class="fil10 str4" d="M357.46 298.02c0,0 22.63,-21.68 24.51,-27.33 1.58,-4.74 6.18,33.98 10.37,43.35 0.81,1.82 4.09,1.7 4.71,0.94 3.76,-4.71 16.96,-32.98 19.79,-41.47 2.83,-8.48 10.37,36.76 16.02,32.05 5.66,-4.72 6.6,-7.54 6.6,-7.54l-15.08 -33.93 -8.48 0c0,0 -11.31,21.68 -16.03,21.68 -4.71,0 -2.82,0 -4.71,0 -1.88,0 -6.59,-24.51 -6.59,-24.51l-6.6 -0.94 -30.16 29.21c0,0 0,8.49 5.65,8.49z"/>
     <rect class="fil11" x="394.22" y="293.49" width="5.65" height="4.52"/>
     <rect class="fil12" x="394.22" y="300.09" width="5.65" height="4.52"/>
     <rect class="fil12" x="401.48" y="293.52" width="4.71" height="3.77"/>
     <rect class="fil12" x="388.56" y="293.3" width="4.71" height="3.77"/>
     <rect class="fil12" x="394.22" y="286.89" width="5.65" height="4.52"/>
    </g>
    <g>
     <polygon class="fil13 str5" points="337.3,333.47 337.3,339.77 334.74,341.06 334.77,338.11 "/>
     <path class="fil10" d="M320.33 326.81c0,0 -26.76,73.35 18.16,6.41 -2.05,-4.77 -2.05,-11.81 -18.16,-6.41z"/>
     <path class="fil14 str6" d="M317.05 342.82c7.12,-2.11 10.1,4.99 9.36,3.93 -1.8,-2.55 5.92,-10.5 8.75,-14.31 2.83,-3.8 -9.11,-7.53 -11.71,-3.83 -2.6,3.7 0.36,11.93 -6.4,14.21z"/>
     <path class="fil5 str7" d="M315.21 343.11c0,0 8.68,-2.37 12.31,5.58"/>
    </g>
    <g>
     <polygon class="fil13 str5" points="371.61,332.5 371.6,339.74 374.55,341.22 374.51,337.82 "/>
     <path class="fil10" d="M391.09 324.86c0,0 30.74,84.23 -20.85,7.35 2.36,-5.47 2.36,-13.56 20.85,-7.35z"/>
     <path class="fil14 str6" d="M394.86 343.25c-8.17,-2.44 -11.6,5.72 -10.74,4.51 2.07,-2.94 -6.81,-12.07 -10.06,-16.43 -3.25,-4.37 10.46,-8.66 13.45,-4.41 2.99,4.25 -0.42,13.7 7.35,16.33z"/>
     <path class="fil5 str7" d="M396.97 343.57c0,0 -9.97,-2.72 -14.13,6.41"/>
    </g>
   </g>
  </g>
 </g>
</svg>
